<svg id="Layer_1" data-name="Layer 1" xmlns="http://www.w3.org/2000/svg" width="109.69mm" height="29.06mm" viewBox="0 0 310.93 82.36">
  <path d="M-137.15,30.79a28,28,0,0,0-28,28,28,28,0,0,0,28,28,28,28,0,0,0,28-28A28,28,0,0,0-137.15,30.79ZM-134,64.94l-8.59,6.12V46.55l8.59,6.13,8.59,6.13Z" transform="translate(165.15 -30.79)"/>
  <g id="Layer_2" data-name="Layer 2">
    <g id="Layer_1-2" data-name="Layer 1-2">
      <path id="Icon_ionic-md-arrow-dropleft-circle" data-name="Icon ionic-md-arrow-dropleft-circle" d="M122.82,101.65A11.48,11.48,0,0,1,134.34,90.2h0a11.48,11.48,0,1,1-11.52,11.52Zm15,0-5.33-5.32v10.6Z" transform="translate(165.15 -30.79)" style="fill: #fff"/>
    </g>
  </g>
</svg>
