<svg xmlns="http://www.w3.org/2000/svg" width="170.635" height="174.466" viewBox="0 0 170.635 174.466">
  <g id="_048-digital_currency" data-name="048-digital currency" transform="translate(-5.5)">
    <path id="Path_48161" data-name="Path 48161" d="M74.8,180.133a85.335,85.335,0,1,1,80.094-27.481H102.28A27.481,27.481,0,0,0,74.8,180.133Z" transform="translate(0 -7.169)" fill="#be0692"/>
    <path id="Path_48162" data-name="Path 48162" d="M139.493,110.922A85.527,85.527,0,0,1,119.221,22.4,85.362,85.362,0,0,1,242.441,124.418a85.355,85.355,0,0,1-102.948-13.5Z" transform="translate(-71.042 -7.169)" fill="#de02b2"/>
    <path id="Path_48163" data-name="Path 48163" d="M126.726,6.965V142.776a6.965,6.965,0,0,1-6.965,6.965H56.174a85.751,85.751,0,0,1-8.191-9.394V47.821A6.962,6.962,0,0,1,44.5,41.788V31.341a6.962,6.962,0,0,1,3.482-6.033V6.965A6.965,6.965,0,0,1,54.948,0h64.814a6.964,6.964,0,0,1,6.964,6.965Z" transform="translate(-25.42 0)" fill="#172a7d"/>
    <path id="Path_48164" data-name="Path 48164" d="M158.248,6.965V142.776a6.965,6.965,0,0,1-6.965,6.965H97.758a6.965,6.965,0,0,1-6.965-6.965V6.965A6.965,6.965,0,0,1,97.758,0h53.526A6.965,6.965,0,0,1,158.248,6.965Z" transform="translate(-55.591 0)" fill="#2740af"/>
    <path id="Path_48165" data-name="Path 48165" d="M140.914,158.847H87.982a3.482,3.482,0,0,1-3.482-3.482V33.482A3.482,3.482,0,0,1,87.982,30h52.932a3.482,3.482,0,0,1,3.482,3.482V155.364A3.482,3.482,0,0,1,140.914,158.847Z" transform="translate(-51.489 -19.553)" fill="#91cefb"/>
    <path id="Path_48166" data-name="Path 48166" d="M139.548,107.95a24.656,24.656,0,0,1-24.656-24.656V33.482A3.482,3.482,0,0,1,118.374,30h42.348a3.482,3.482,0,0,1,3.482,3.482V83.294A24.656,24.656,0,0,1,139.548,107.95Z" transform="translate(-71.298 -19.553)" fill="#bbe0fb"/>
    <path id="Path_48167" data-name="Path 48167" d="M224.738,156.965v35.07c0,39.011,24.223,72.572-14.132,79.694a16.359,16.359,0,0,1-2.177.323,85.417,85.417,0,0,1-10.447-1.322V197.821a6.962,6.962,0,0,1-3.482-6.033V181.341a6.962,6.962,0,0,1,3.482-6.033V156.965A6.965,6.965,0,0,1,204.946,150h12.827a6.965,6.965,0,0,1,6.965,6.965Z" transform="translate(-123.183 -97.765)" fill="#172a7d"/>
    <path id="Path_48168" data-name="Path 48168" d="M308.248,190.856V196.2a6.962,6.962,0,0,1,3.482,6.033v3.482a6.962,6.962,0,0,1-3.482,6.033v31.5a85.836,85.836,0,0,1-9.532,9.273q-.832.692-1.775,1.364c-23.5,16.762-56.149-.445-56.149-29.313V156.965A6.965,6.965,0,0,1,247.757,150h53.526a6.965,6.965,0,0,1,6.965,6.965v18.344a6.962,6.962,0,0,1,3.482,6.033v3.482A6.962,6.962,0,0,1,308.248,190.856Z" transform="translate(-153.355 -97.765)" fill="#2740af"/>
    <path id="Path_48169" data-name="Path 48169" d="M294.4,183.482v88.773a84.97,84.97,0,0,1-54.325,19.528q-2.808,0-5.572-.179V183.482A3.482,3.482,0,0,1,237.982,180h52.932A3.482,3.482,0,0,1,294.4,183.482Z" transform="translate(-149.254 -117.318)" fill="#bbe0fb"/>
    <path id="Path_48170" data-name="Path 48170" d="M295.561,277.548l-.642.157a24.377,24.377,0,0,1-30.169-23.658V180h45.88a3.482,3.482,0,0,1,3.482,3.482V253.89A24.375,24.375,0,0,1,295.561,277.548Z" transform="translate(-168.97 -117.318)" fill="#fff5f5"/>
    <path id="Path_48171" data-name="Path 48171" d="M161.394,47.612a2.612,2.612,0,0,1-2.612,2.612H143.112a2.612,2.612,0,0,1,0-5.224h15.671A2.612,2.612,0,0,1,161.394,47.612Zm49.623,49.623H195.347a2.612,2.612,0,0,0,0,5.224h15.671a2.612,2.612,0,1,0,0-5.224Z" transform="translate(-87.988 -29.329)" fill="#2740af"/>
    <path id="Path_48172" data-name="Path 48172" d="M260.665,244.423a5.224,5.224,0,0,1-9.748,2.612H233.9l16.539,16.539a5.223,5.223,0,1,1-3.693,3.693l-20.232-20.233H194.5v-5.224h26.79l-14.436-14.436,3.694-3.694,18.13,18.13h1.2a2.638,2.638,0,0,1,.209-.235l23.855-23.855V203.677a5.224,5.224,0,1,1,5.224,0v14.669a2.608,2.608,0,0,1-.731,2.269l-21.2,21.2h13.676a5.224,5.224,0,0,1,9.748,2.612Zm-41.44-35.694a5.224,5.224,0,0,0,2.612-9.748V180h-5.224v18.981a5.224,5.224,0,0,0,2.612,9.748Zm19.153,65.114a5.224,5.224,0,0,0-2.612,9.748v5.39q2.646-.7,5.223-1.556v-3.835a5.224,5.224,0,0,0-2.612-9.748Zm-6.442-65.6v18.981h5.224V208.242a5.224,5.224,0,1,0-5.224,0Z" transform="translate(-123.184 -117.318)" fill="#49b4fa"/>
    <path id="Path_48173" data-name="Path 48173" d="M97,55.943A5.224,5.224,0,0,0,99.613,46.2V30H94.39V46.2A5.224,5.224,0,0,0,97,55.943ZM144.4,42.885h-5.313a5.224,5.224,0,1,1,0-5.224H144.4Zm-20.928,106.15a2.612,2.612,0,0,1-3.694,3.693L95.12,128.074a2.608,2.608,0,0,1-.731-2.269V111.136a5.224,5.224,0,1,1,5.224,0V125.18Zm6.931-99.01a5.224,5.224,0,0,1-5.046,8.74l-9.93,9.931v62.951H110.2V67.564a2.608,2.608,0,0,1,1.088-2.121L121.66,55.071a5.224,5.224,0,0,1,8.74-5.046ZM95.084,70.567,84.5,59.983V52.6L99.576,67.672a2.608,2.608,0,0,1,.731,2.269V84.61a5.224,5.224,0,1,1-5.224,0Z" transform="translate(-51.489 -19.553)" fill="#05a2f9"/>
    <path id="Path_48174" data-name="Path 48174" d="M204.147,304.823A34.823,34.823,0,1,1,169.323,270,34.823,34.823,0,0,1,204.147,304.823Z" transform="translate(-84.078 -175.977)" fill="#fda800"/>
    <path id="Path_48175" data-name="Path 48175" d="M215.589,323.446a24.884,24.884,0,0,1-16.4,23.394,24.89,24.89,0,0,0-31.864-31.864,24.878,24.878,0,0,1,48.268,8.47Z" transform="translate(-105.469 -194.599)" fill="#fdbf43"/>
    <path id="Path_48176" data-name="Path 48176" d="M180.729,287.5a28.729,28.729,0,1,0,28.729,28.729A28.762,28.762,0,0,0,180.729,287.5Zm0,52.235a23.506,23.506,0,1,1,23.506-23.506A23.532,23.532,0,0,1,180.729,339.735Zm3.482-37.87V331.5a2.612,2.612,0,0,1-5.224,0V304.476h-3.722a2.612,2.612,0,0,1,0-5.224H181.6A2.612,2.612,0,0,1,184.212,301.865Z" transform="translate(-95.484 -187.383)" fill="#e27500"/>
  </g>
</svg>
