<svg xmlns="http://www.w3.org/2000/svg" width="255.419" height="261.153" viewBox="0 0 255.419 261.153"><g transform="translate(-5.5)"><path d="M5.5,138.709A127.709,127.709,0,1,1,207.357,242.7a127.762,127.762,0,0,0-148.3,0A127.548,127.548,0,0,1,5.5,138.709Z" transform="translate(0 -5.266)" fill="#081666"/><path d="M135.7,11A127.755,127.755,0,0,1,260.7,112.386a127.742,127.742,0,0,1-249.987,0A127.754,127.754,0,0,1,135.7,11Z" transform="translate(-2.495 -5.266)" fill="#210e93"/><path d="M95.054,234.736V92.89A13.524,13.524,0,0,1,88.29,81.172V60.879A13.522,13.522,0,0,1,95.054,49.16V13.529A13.529,13.529,0,0,1,108.583,0h32.842A13.528,13.528,0,0,0,127.9,13.529V241.008a7.888,7.888,0,0,1-11.336,7.106,127.76,127.76,0,0,1-21.506-13.378Z" transform="translate(-39.635 0)" fill="#172a7d"/><path d="M279.392,79.362V89.746a13.523,13.523,0,0,1,6.764,11.719v6.764a13.523,13.523,0,0,1-6.764,11.719V234.736a127.83,127.83,0,0,1-18.94,12.08,40.682,40.682,0,0,1-9.208,3.053c-52.681,12.158-102.881-28.27-102.881-82.335V13.528A13.529,13.529,0,0,1,161.892,0H265.864a13.529,13.529,0,0,1,13.529,13.529V49.16a13.523,13.523,0,0,1,6.764,11.719v6.764a13.525,13.525,0,0,1-6.765,11.719Z" transform="translate(-68.394)" fill="#1f3595"/><path d="M256.544,355.275V413.66a127.955,127.955,0,0,1-116.346.694V355.275a6.764,6.764,0,0,1,6.764-6.764H249.78a6.765,6.765,0,0,1,6.764,6.764Z" transform="translate(-64.485 -166.845)" fill="#e3f0fb"/><path d="M204.418,262.328H192.324A52.127,52.127,0,0,1,140.2,210.2V45.694a6.764,6.764,0,0,1,6.764-6.764H249.78a6.764,6.764,0,0,1,6.764,6.764V210.2A52.127,52.127,0,0,1,204.418,262.328Z" transform="translate(-64.485 -18.637)" fill="#fff5f5"/><path d="M212.867,63.468a5.073,5.073,0,0,1,5.073-5.073H248.38a5.073,5.073,0,1,1,0,10.146H217.94A5.073,5.073,0,0,1,212.867,63.468Z" transform="translate(-99.274 -27.956)" fill="#1f3595"/><path d="M241.945,380H185.909a3.909,3.909,0,1,0,0,7.819h56.036a3.909,3.909,0,0,0,0-7.819Zm-26.063,15.638H185.909a3.909,3.909,0,1,0,0,7.819h29.973a3.909,3.909,0,1,0,0-7.819Z" transform="translate(-84.497 -181.92)" fill="#49b4fa"/><path d="M202.77,352.843H178.01a3.909,3.909,0,1,1,0-7.819h24.76a3.909,3.909,0,1,1,0,7.819Zm46.914-3.909a3.91,3.91,0,0,0-3.909-3.909H226.227a3.909,3.909,0,1,0,0,7.819h19.547A3.91,3.91,0,0,0,249.684,348.933ZM243.689,228H175.925a10.425,10.425,0,0,0,0,20.851H187.1a56.5,56.5,0,0,1,45.42,0H243.69a10.425,10.425,0,0,0,0-20.851Z" transform="translate(-76.598 -109.152)" fill="#314dc8"/><path d="M251.7,331.276H163.606A2.607,2.607,0,0,1,161,328.669V302.606A2.607,2.607,0,0,1,163.606,300H251.7a2.607,2.607,0,0,1,2.606,2.606v26.063A2.607,2.607,0,0,1,251.7,331.276Z" transform="translate(-74.444 -143.621)" fill="#fdcb6b"/><path d="M210.669,330.319h-24.76a3.909,3.909,0,0,1,0-7.819h24.76a3.909,3.909,0,0,1,0,7.819Z" transform="translate(-84.497 -154.393)" fill="#fd8f01"/><path d="M300.244,330.319H285.909a3.909,3.909,0,1,1,0-7.819h14.335a3.909,3.909,0,1,1,0,7.819Z" transform="translate(-132.371 -154.393)" fill="#e27500"/><path d="M165.5,154.307a44.307,44.307,0,1,1,67.018,38.052H187.1A44.285,44.285,0,0,1,165.5,154.307Z" transform="translate(-76.598 -52.661)" fill="#fda800"/><path d="M254.811,165.934A31.661,31.661,0,0,1,233.94,195.7,31.668,31.668,0,0,0,193.4,155.158a31.653,31.653,0,0,1,61.413,10.776Z" transform="translate(-89.954 -64.288)" fill="#fdbf43"/><path d="M216.39,123.75a37.14,37.14,0,1,0,37.14,37.14A37.182,37.182,0,0,0,216.39,123.75Zm0,66.461a29.321,29.321,0,1,1,29.321-29.321A29.354,29.354,0,0,1,216.39,190.211Zm13.538-28.251a3.91,3.91,0,0,1,0,5.529l-10.773,10.773a3.911,3.911,0,0,1-5.53,0l-10.773-10.773a3.91,3.91,0,0,1,5.529-5.529l3.99,3.991V141.6a3.909,3.909,0,1,1,7.819,0v24.564l4.207-4.208a3.912,3.912,0,0,1,5.53,0Z" transform="translate(-83.181 -59.244)" fill="#e27500"/></g></svg>