<svg id="risidio_-_logo_final-01" data-name="risidio - logo final-01" xmlns="http://www.w3.org/2000/svg" width="326.277" height="150.229" viewBox="0 0 326.277 150.229">
  <path id="Path_8" data-name="Path 8" d="M110.508,99.362a19.278,19.278,0,0,1,5.111,4.893l-5.111,4.061-1.942,1.588a11.028,11.028,0,0,0-3.925-3.523,11.063,11.063,0,0,0-9.567-.443,11.441,11.441,0,0,0-3.529,2.378,11.244,11.244,0,0,0-2.378,3.523,10.673,10.673,0,0,0-.879,4.32v26.175H79.21V95.98h9.083v3.382a19.937,19.937,0,0,1,5.2-2.491,20.027,20.027,0,0,1,11.816,0A20.22,20.22,0,0,1,110.508,99.362Z" transform="translate(-32.256 -39.129)"/>
  <path id="Path_9" data-name="Path 9" d="M159.933,95.81v46.548H150.85V95.81Z" transform="translate(-61.615 -39.059)"/>
  <path id="Path_10" data-name="Path 10" d="M206.6,120.968a15.33,15.33,0,0,1,1.942,3.836,12.08,12.08,0,0,1,.62,4.361,12.747,12.747,0,0,1-1.322,5.377,14.751,14.751,0,0,1-3.264,4.32,14.353,14.353,0,0,1-4.763,2.862,15.008,15.008,0,0,1-5.731.927,15.908,15.908,0,0,1-7.625-2.2,13.509,13.509,0,0,1-5.158-5.377l7.584-5.288a4.962,4.962,0,0,0,1.942,2.691,5.76,5.76,0,0,0,3.523,1.1,5.869,5.869,0,0,0,4.013-1.281,4.175,4.175,0,0,0,1.717-3.394,3.058,3.058,0,0,0-.089-.879v-.177a.7.7,0,0,1-.089-.307.7.7,0,0,0-.089-.307,5.128,5.128,0,0,0-2.29-2.467,3.528,3.528,0,0,0-.791-.354l.089-.089a30.2,30.2,0,0,0-2.733-1.369c-1-.443-2.013-.909-3.039-1.411s-2.042-1.027-3.039-1.588a17.124,17.124,0,0,1-2.821-1.983v-.089l-.266-.266a13.084,13.084,0,0,1-2.91-4.1,11.056,11.056,0,0,1-.968-4.981,11.811,11.811,0,0,1,1.233-4.934,12.936,12.936,0,0,1,3.039-3.966,14.357,14.357,0,0,1,4.45-2.644,14.108,14.108,0,0,1,5.465-.879,15.5,15.5,0,0,1,6.834,1.853,12.82,12.82,0,0,1,4.8,4.5l-7.407,5.111a4.512,4.512,0,0,0-1.717-1.676,5.144,5.144,0,0,0-2.691-.7,5.357,5.357,0,0,0-3.482.968,3.093,3.093,0,0,0-1.452,2.556,1.519,1.519,0,0,0,.089.62,3.131,3.131,0,0,0,.879,1.676,5.369,5.369,0,0,0,1.765,1.145q1.673.974,3.836,1.983t4.362,2.249a13.642,13.642,0,0,1,3.175,2.03l.443.443A17.7,17.7,0,0,1,206.6,120.968Z" transform="translate(-73.987 -39.181)"/>
  <path id="Path_11" data-name="Path 11" d="M252.7,95.81v46.548H243.62V95.81Z" transform="translate(-99.633 -39.059)"/>
  <path id="Path_12" data-name="Path 12" d="M320.194,97.628a22.9,22.9,0,0,1-1.806,9.083A23.226,23.226,0,0,1,306,119.1a23.744,23.744,0,0,1-18.166,0,23.226,23.226,0,0,1-12.388-12.388,23.744,23.744,0,0,1,0-18.166,23.226,23.226,0,0,1,12.388-12.388,22.9,22.9,0,0,1,9.083-1.806,22.361,22.361,0,0,1,7.625,1.281,24.135,24.135,0,0,1,6.569,3.571V43.23h9.083v54.4Zm-23.23,14.194a13.868,13.868,0,0,0,5.495-1.1,14.154,14.154,0,0,0,8.658-13.09v-.089a13.7,13.7,0,0,0-1.1-5.465,14.227,14.227,0,0,0-3.034-4.5,14.155,14.155,0,0,0-10.021-4.143,13.847,13.847,0,0,0-5.495,1.1,14.142,14.142,0,0,0-4.527,3.039,14.862,14.862,0,0,0-3.075,4.539,13.842,13.842,0,0,0,0,11.025,14.791,14.791,0,0,0,3.075,4.539,14.047,14.047,0,0,0,4.527,3.039A13.826,13.826,0,0,0,296.964,111.822Z" transform="translate(-111.936 -17.511)"/>
  <path id="Path_13" data-name="Path 13" d="M376.383,95.81v46.548H367.3V95.81Z" transform="translate(-150.318 -39.059)"/>
  <path id="Path_14" data-name="Path 14" d="M420.607,95.81a22.9,22.9,0,0,1,9.083,1.806A23.226,23.226,0,0,1,442.078,110a23.744,23.744,0,0,1,0,18.166,23.226,23.226,0,0,1-12.388,12.388,23.744,23.744,0,0,1-18.166,0,23.226,23.226,0,0,1-12.388-12.388,23.744,23.744,0,0,1,0-18.166,23.226,23.226,0,0,1,12.388-12.388A22.9,22.9,0,0,1,420.607,95.81Zm.041,37.471a13.868,13.868,0,0,0,5.495-1.1,14.047,14.047,0,0,0,4.527-3.039A14.244,14.244,0,0,0,433.7,124.6a14.17,14.17,0,0,0-13.055-19.706,13.847,13.847,0,0,0-5.495,1.1,14.142,14.142,0,0,0-4.527,3.039,14.863,14.863,0,0,0-3.075,4.539,13.842,13.842,0,0,0,0,11.025,14.792,14.792,0,0,0,3.075,4.539,14.046,14.046,0,0,0,4.527,3.039A13.847,13.847,0,0,0,420.648,133.281Z" transform="translate(-162.625 -39.059)"/>
  <circle id="Ellipse_4" data-name="Ellipse 4" cx="4.993" cy="4.993" r="4.993" transform="translate(88.786 41.996)" fill="#f9b807"/>
  <circle id="Ellipse_5" data-name="Ellipse 5" cx="4.993" cy="4.993" r="4.993" transform="translate(143.533 107.956)" fill="#e9493d"/>
  <circle id="Ellipse_6" data-name="Ellipse 6" cx="4.993" cy="4.993" r="4.993" transform="translate(216.48 41.925)" fill="#5fbdc1"/>
  <rect id="Rectangle_3" data-name="Rectangle 3" width="325.277" height="149.229" transform="translate(0.5 0.5)" fill="none" stroke="#000" stroke-miterlimit="10" stroke-width="1" opacity="0"/>
</svg>
