<svg xmlns="http://www.w3.org/2000/svg" width="152.776" height="156.205" viewBox="0 0 152.776 156.205">
  <g id="_006-wallet" data-name="006-wallet" transform="translate(-5.5)">
    <path id="Path_48267" data-name="Path 48267" d="M158.275,87.387a76.164,76.164,0,0,1-23.384,55.006H132.8a8.6,8.6,0,0,0-8.6,8.6,76.437,76.437,0,0,1-84.636,0,8.6,8.6,0,0,0-8.6-8.6H28.884A76.388,76.388,0,1,1,158.275,87.387Z" transform="translate(0 -7.57)" fill="#a5d2d6"/>
    <path id="Path_48268" data-name="Path 48268" d="M187.759,125.32a58.876,58.876,0,0,1-19.868-114.3,76.388,76.388,0,0,1,75.3,75.3,58.89,58.89,0,0,1-55.429,39Z" transform="translate(-84.92 -7.588)" fill="#edf7f8"/>
    <path id="Path_48269" data-name="Path 48269" d="M301.354,54.677a4.675,4.675,0,0,1-2.338,4.051v50.512h-4.677V58.728a4.677,4.677,0,1,1,7.015-4.051ZM320.84,67.148a4.677,4.677,0,1,0-7.015,4.051v50.512H318.5V71.2A4.675,4.675,0,0,0,320.84,67.148Z" transform="translate(-197.173 -34.411)" fill="#008a80"/>
    <path id="Path_48270" data-name="Path 48270" d="M184.2,182.673a2.3,2.3,0,0,1,2.3,2.3v6.108a4.609,4.609,0,0,1-4.609,4.609H85.109a4.609,4.609,0,0,1-4.609-4.609V175.759a2.3,2.3,0,0,1,2.3-2.3H111.52a3.457,3.457,0,0,1,3.237,2.243l2.616,6.975Z" transform="translate(-51.616 -119.374)" fill="#fff5f5"/>
    <path id="Path_48271" data-name="Path 48271" d="M87.414,196.507h-2.3A4.609,4.609,0,0,1,80.5,191.9V175.759a2.3,2.3,0,0,1,2.3-2.3h4.609v23.052Z" transform="translate(-51.616 -119.374)" fill="#e3f0fb"/>
    <path id="Path_48272" data-name="Path 48272" d="M186.507,241H80.5V230H186.507Z" transform="translate(-51.616 -158.289)" fill="#49b4fa"/>
    <path id="Path_48273" data-name="Path 48273" d="M87.414,241H80.5V230h6.914Z" transform="translate(-51.616 -158.289)" fill="#05a2f9"/>
    <path id="Path_48274" data-name="Path 48274" d="M104.177,242.617a2.338,2.338,0,1,1-2.338-2.338A2.338,2.338,0,0,1,104.177,242.617Zm13.251-2.338a2.338,2.338,0,1,0,2.338,2.338A2.338,2.338,0,0,0,117.428,240.279Zm-7.795,0a2.338,2.338,0,1,0,2.338,2.338A2.338,2.338,0,0,0,109.633,240.279Z" transform="translate(-64.692 -165.363)" fill="#0280e3"/>
    <path id="Path_48275" data-name="Path 48275" d="M111.648,192.177H96.059a1.559,1.559,0,0,1-1.559-1.559v-1.559a1.559,1.559,0,0,1,1.559-1.559h15.589a1.559,1.559,0,0,1,1.559,1.559v1.559A1.559,1.559,0,0,1,111.648,192.177Z" transform="translate(-61.251 -129.04)" fill="#91cefb"/>
    <path id="Path_48276" data-name="Path 48276" d="M234.5,173.825a21.825,21.825,0,1,1,21.825,21.825A21.825,21.825,0,0,1,234.5,173.825Z" transform="translate(-157.601 -104.608)" fill="#f5c02c"/>
    <path id="Path_48277" data-name="Path 48277" d="M287.725,187.589a15.6,15.6,0,0,1-10.281,14.662,15.6,15.6,0,0,0-19.971-19.97,15.592,15.592,0,0,1,30.251,5.308Z" transform="translate(-173.412 -118.373)" fill="#f1ca50"/>
    <path id="Path_48278" data-name="Path 48278" d="M264.928,164.5a17.928,17.928,0,1,0,17.928,17.928A17.948,17.948,0,0,0,264.928,164.5Zm0,31.179a13.251,13.251,0,1,1,13.251-13.251A13.266,13.266,0,0,1,264.928,195.679Zm3.118-20.445v14.388a2.338,2.338,0,1,1-4.677,0v-12.05h-.737a2.338,2.338,0,1,1,0-4.677h3.075A2.338,2.338,0,0,1,268.046,175.234Z" transform="translate(-166.204 -113.211)" fill="#c98001"/>
    <path id="Path_48279" data-name="Path 48279" d="M114.5,21.825A21.825,21.825,0,1,1,136.325,43.65,21.825,21.825,0,0,1,114.5,21.825Z" transform="translate(-75.015)" fill="#fda800"/>
    <path id="Path_48280" data-name="Path 48280" d="M167.725,35.589a15.6,15.6,0,0,1-10.281,14.662,15.6,15.6,0,0,0-19.971-19.97,15.592,15.592,0,0,1,30.251,5.308Z" transform="translate(-90.826 -13.764)" fill="#fdbf43"/>
    <path id="Path_48281" data-name="Path 48281" d="M148.046,23.234V37.622a2.338,2.338,0,1,1-4.677,0V25.572h-.737a2.338,2.338,0,1,1,0-4.677h3.075A2.338,2.338,0,0,1,148.046,23.234Zm14.81,7.194A17.928,17.928,0,1,1,144.928,12.5,17.948,17.948,0,0,1,162.855,30.428Zm-4.677,0a13.251,13.251,0,1,0-13.251,13.251A13.266,13.266,0,0,0,158.179,30.428Z" transform="translate(-83.618 -8.603)" fill="#e27500"/>
    <path id="Path_48282" data-name="Path 48282" d="M80.5,263.265H186.507v52.741a76.748,76.748,0,0,1-10.686,8.6H91.186a76.748,76.748,0,0,1-10.686-8.6Z" transform="translate(-51.616 -181.182)" fill="#f57e00"/>
    <path id="Path_48283" data-name="Path 48283" d="M80.5,263.265h6.914v58.656a76.856,76.856,0,0,1-6.914-5.915Z" transform="translate(-51.616 -181.182)" fill="#e27500"/>
    <path id="Path_48284" data-name="Path 48284" d="M307.5,352.222H262.295a7.795,7.795,0,1,1,0-15.589H307.5a3.118,3.118,0,0,1,3.118,3.118V349.1A3.118,3.118,0,0,1,307.5,352.222Z" transform="translate(-171.365 -231.675)" fill="#f4aa39"/>
    <path id="Path_48285" data-name="Path 48285" d="M273.854,351.31a4.677,4.677,0,1,1-4.677-4.677A4.677,4.677,0,0,1,273.854,351.31Z" transform="translate(-178.247 -238.557)" fill="#c98001"/>
    <path id="Path_48286" data-name="Path 48286" d="M170.233,134.519l3.518-1.03a.624.624,0,0,1,.774.774l-1.03,3.518a.62.62,0,0,0,0,.35l1.03,3.518a.624.624,0,0,1-.774.774l-3.518-1.03a.62.62,0,0,0-.35,0l-3.518,1.03a.624.624,0,0,1-.774-.774l1.03-3.518a.621.621,0,0,0,0-.35l-1.03-3.518a.624.624,0,0,1,.774-.774l3.518,1.03A.626.626,0,0,0,170.233,134.519ZM89.168,121.056l3.518-1.03a.624.624,0,0,1,.774.774l-1.03,3.518a.62.62,0,0,0,0,.35l1.03,3.518a.624.624,0,0,1-.774.774l-3.518-1.03a.62.62,0,0,0-.35,0L85.3,128.96a.624.624,0,0,1-.774-.774l1.03-3.518a.62.62,0,0,0,0-.35l-1.03-3.518a.624.624,0,0,1,.774-.774l3.518,1.03A.62.62,0,0,0,89.168,121.056Z" transform="translate(-54.369 -82.586)" fill="#fff5f5"/>
  </g>
</svg>
