<svg xmlns="http://www.w3.org/2000/svg" width="229" height="223.972" viewBox="0 0 229 223.972">
  <g id="_022-encoding" data-name="022-encoding" transform="translate(0 -5.5)">
    <path id="Path_47811" data-name="Path 47811" d="M194.65,203.542A111.989,111.989,0,0,1,11,117.486C11,55.525,61.706,5.133,123.667,5.5A112.038,112.038,0,0,1,230.508,86.079a35.858,35.858,0,0,0-35.858,35.858v81.6Z" transform="translate(-5.972 0)" fill="#172a7d"/>
    <path id="Path_47812" data-name="Path 47812" d="M273.3,145.118A94.4,94.4,0,1,1,161.923,5.844q4.375-.341,8.84-.344A112.036,112.036,0,0,1,278.285,86.08C281.19,96.044,276.992,139.257,273.3,145.118Z" transform="translate(-53.749 0)" fill="#1f3595"/>
    <path id="Path_47813" data-name="Path 47813" d="M62.741,345.106a6.857,6.857,0,0,1,12.8-3.428h74.051v6.856H75.536a6.857,6.857,0,0,1-12.8-3.428Zm43.538,24.568H180.33v-6.856H106.279a6.856,6.856,0,1,0,0,6.856Z" transform="translate(-34.063 -180.655)" fill="#008a80"/>
    <path id="Path_47814" data-name="Path 47814" d="M152.031,49.113a3.378,3.378,0,0,1,3.378,3.378v24.8a6.757,6.757,0,0,1-6.757,6.757H6.757A6.757,6.757,0,0,1,0,77.293V38.977A3.378,3.378,0,0,1,3.378,35.6h42.1a5.068,5.068,0,0,1,4.745,3.288l3.834,10.225Z" transform="translate(0 -16.341)" fill="#fd2aa7"/>
    <path id="Path_47815" data-name="Path 47815" d="M10.135,84.05H6.757A6.757,6.757,0,0,1,0,77.293V38.977A3.378,3.378,0,0,1,3.378,35.6h6.757V84.05Z" transform="translate(0 -16.341)" fill="#f02399"/>
    <path id="Path_47816" data-name="Path 47816" d="M59.14,56.5H36.285A2.286,2.286,0,0,1,34,54.215V51.929a2.286,2.286,0,0,1,2.285-2.285H59.14a2.286,2.286,0,0,1,2.285,2.285v2.285A2.286,2.286,0,0,1,59.14,56.5Z" transform="translate(-18.459 -23.967)" fill="#d80d80"/>
    <path id="Path_47817" data-name="Path 47817" d="M155.409,108.269H0V92.143H155.409Z" transform="translate(0 -47.04)" fill="#49b4fa"/>
    <path id="Path_47818" data-name="Path 47818" d="M10.135,108.269H0V92.143H10.135Z" transform="translate(0 -47.04)" fill="#0191f8"/>
    <path id="Path_47819" data-name="Path 47819" d="M25.856,105.851a3.428,3.428,0,1,1-3.428-3.428A3.428,3.428,0,0,1,25.856,105.851Zm19.426-3.428a3.428,3.428,0,1,0,3.428,3.428A3.428,3.428,0,0,0,45.282,102.423Zm-11.427,0a3.428,3.428,0,1,0,3.428,3.428A3.428,3.428,0,0,0,33.855,102.423Z" transform="translate(-10.315 -52.621)" fill="#0280e3"/>
    <path id="Path_47820" data-name="Path 47820" d="M150.838,215.334H4.571A4.571,4.571,0,0,1,0,210.763V125.409H155.409v85.354A4.571,4.571,0,0,1,150.838,215.334Z" transform="translate(0 -65.1)" fill="#fff5f5"/>
    <path id="Path_47821" data-name="Path 47821" d="M10.135,215.334H4.571A4.571,4.571,0,0,1,0,210.763V125.409H10.135Z" transform="translate(0 -65.1)" fill="#bbe0fb"/>
    <path id="Path_47822" data-name="Path 47822" d="M53.281,163.856h-32A2.286,2.286,0,0,1,19,161.571v-2.285A2.286,2.286,0,0,1,21.285,157h32a2.286,2.286,0,0,1,2.285,2.285v2.285A2.286,2.286,0,0,1,53.281,163.856Zm23.311,6.856H48.711A2.286,2.286,0,0,0,46.425,173v2.285a2.286,2.286,0,0,0,2.285,2.285H76.593a2.286,2.286,0,0,0,2.285-2.285V173A2.286,2.286,0,0,0,76.593,170.713ZM72.022,211.85H48.711a2.286,2.286,0,0,0-2.285,2.285v2.285a2.286,2.286,0,0,0,2.285,2.285H72.022a2.286,2.286,0,0,0,2.285-2.285v-2.285A2.286,2.286,0,0,0,72.022,211.85ZM48.711,191.281h9.6A2.286,2.286,0,0,0,60.595,189v-2.285a2.286,2.286,0,0,0-2.285-2.285h-9.6a2.286,2.286,0,0,0-2.285,2.285V189A2.286,2.286,0,0,0,48.711,191.281Z" transform="translate(-10.315 -82.252)" fill="#63bcfa"/>
    <path id="Path_47823" data-name="Path 47823" d="M37.283,246.711V249A2.286,2.286,0,0,1,35,251.281H21.285A2.286,2.286,0,0,1,19,249v-2.285a2.286,2.286,0,0,1,2.285-2.285H35A2.286,2.286,0,0,1,37.283,246.711ZM35,217H21.285A2.286,2.286,0,0,0,19,219.285v2.285a2.286,2.286,0,0,0,2.285,2.285H35a2.286,2.286,0,0,0,2.285-2.285v-2.285A2.286,2.286,0,0,0,35,217Z" transform="translate(-10.315 -114.827)" fill="#fd4fb6"/>
    <path id="Path_47824" data-name="Path 47824" d="M19,191.571v-2.285A2.286,2.286,0,0,1,21.285,187H35a2.286,2.286,0,0,1,2.285,2.285v2.285A2.286,2.286,0,0,1,35,193.856H21.285A2.286,2.286,0,0,1,19,191.571Zm25.14,22.854H21.285A2.286,2.286,0,0,0,19,216.711V219a2.286,2.286,0,0,0,2.285,2.285H44.14A2.286,2.286,0,0,0,46.425,219v-2.285A2.286,2.286,0,0,0,44.14,214.425Z" transform="translate(-10.315 -98.539)" fill="#008a80"/>
    <path id="Path_47825" data-name="Path 47825" d="M234.055,165.741h88.206a112.037,112.037,0,0,1,4.463,31.4q0,1.772-.055,3.533H186.757A6.757,6.757,0,0,1,180,193.922V155.606a3.378,3.378,0,0,1,3.378-3.379h42.1a5.068,5.068,0,0,1,4.745,3.288Z" transform="translate(-97.725 -79.66)" fill="#f5c02c"/>
    <path id="Path_47826" data-name="Path 47826" d="M190.135,200.679h-3.378A6.757,6.757,0,0,1,180,193.921V155.605a3.378,3.378,0,0,1,3.378-3.378h6.757v48.452Z" transform="translate(-97.725 -79.66)" fill="#f19b0b"/>
    <path id="Path_47827" data-name="Path 47827" d="M180,242.038H326.659q.065,1.926.066,3.868A111.751,111.751,0,0,1,286.4,331.962H184.571A4.571,4.571,0,0,1,180,327.391Z" transform="translate(-97.725 -128.42)" fill="#fc9302"/>
    <path id="Path_47828" data-name="Path 47828" d="M190.135,331.962h-5.565A4.571,4.571,0,0,1,180,327.391V242.038h10.135Z" transform="translate(-97.725 -128.42)" fill="#f57e00"/>
    <path id="Path_47829" data-name="Path 47829" d="M259.5,299.666a9.664,9.664,0,0,0,9.653-9.653v-9.954a9.653,9.653,0,0,0-19.305,0v9.954A9.664,9.664,0,0,0,259.5,299.666Zm-2.8-19.608a2.8,2.8,0,1,1,5.593,0v9.954a2.8,2.8,0,0,1-5.593,0Zm31.065-5.785a3.428,3.428,0,0,1,3.428-3.428h4.6a3.428,3.428,0,0,1,3.428,3.428V295.8a3.428,3.428,0,1,1-6.856,0V277.7H291.2A3.428,3.428,0,0,1,287.771,274.273Zm-52.612,25.393a9.664,9.664,0,0,0,9.653-9.653v-9.954a9.653,9.653,0,0,0-19.305,0v9.954a9.663,9.663,0,0,0,9.653,9.653Zm-2.8-19.608a2.8,2.8,0,1,1,5.593,0v9.954a2.8,2.8,0,0,1-5.593,0Zm28.477,28.947v21.526a3.428,3.428,0,1,1-6.856,0v-18.1H252.81a3.428,3.428,0,1,1,0-6.856h4.6A3.428,3.428,0,0,1,260.839,309.005Zm-24.309-3.867a9.664,9.664,0,0,0-9.653,9.653v9.954a9.653,9.653,0,0,0,19.305,0V314.79A9.664,9.664,0,0,0,236.53,305.138Zm2.8,19.607a2.8,2.8,0,0,1-5.593,0V314.79a2.8,2.8,0,1,1,5.593,0Zm41.407-25.518A3.428,3.428,0,0,1,277.3,295.8V277.7h-1.172a3.428,3.428,0,0,1,0-6.856h4.6a3.428,3.428,0,0,1,3.428,3.428V295.8A3.428,3.428,0,0,1,280.733,299.227Zm10.308,5.911a9.664,9.664,0,0,0-9.653,9.653v9.954a9.653,9.653,0,0,0,19.305,0V314.79A9.663,9.663,0,0,0,291.041,305.138Zm2.8,19.607a2.8,2.8,0,1,1-5.593,0V314.79a2.8,2.8,0,1,1,5.593,0Zm-16.99-15.74v21.526a3.428,3.428,0,1,1-6.856,0v-18.1h-1.172a3.428,3.428,0,0,1,0-6.856h4.6A3.428,3.428,0,0,1,276.848,309.005Z" transform="translate(-122.43 -143.821)" fill="#fdbf43"/>
    <path id="Path_47830" data-name="Path 47830" d="M446.907,231.833v12.135a2.647,2.647,0,0,1-.775,1.871l-3.743,3.743a2.646,2.646,0,0,0-.775,1.871v37.191a2.646,2.646,0,0,1-2.646,2.646h-5.293a2.646,2.646,0,0,1-2.646-2.646v-1.55a2.647,2.647,0,0,0-.775-1.871l-3.743-3.743a2.646,2.646,0,0,1-.775-1.871V231.833a2.646,2.646,0,0,1,2.646-2.646H444.26a2.646,2.646,0,0,1,2.647,2.646Z" transform="translate(-231.138 -121.443)" fill="#008a80"/>
    <path id="Path_47831" data-name="Path 47831" d="M441.631,229.187h9.821a2.646,2.646,0,0,1,2.646,2.647v12.135a2.646,2.646,0,0,1-.775,1.871l-3.743,3.743a2.645,2.645,0,0,0-.775,1.871v37.191a2.288,2.288,0,1,1-4.529,0v-3.836a2.647,2.647,0,0,0-.775-1.871l-3.743-3.743a2.646,2.646,0,0,1-.775-1.871V231.834A2.648,2.648,0,0,1,441.631,229.187Z" transform="translate(-238.331 -121.443)" fill="#01988c"/>
    <path id="Path_47832" data-name="Path 47832" d="M439.852,159.713H401.36a4.571,4.571,0,0,0-4.571,4.571v33.2a4.571,4.571,0,0,0,4.571,4.571h38.492a4.571,4.571,0,0,0,4.571-4.571v-33.2A4.571,4.571,0,0,0,439.852,159.713ZM433.837,178.6a2.285,2.285,0,0,1-2.285,2.285H409.66a2.285,2.285,0,0,1-2.285-2.285v-6.014a2.286,2.286,0,0,1,2.285-2.285h21.892a2.286,2.286,0,0,1,2.285,2.285Z" transform="translate(-215.422 -83.725)" fill="#bbe0fb"/>
    <path id="Path_47833" data-name="Path 47833" d="M457,164.283v33.2a4.571,4.571,0,0,1-4.571,4.571H424.518a4.571,4.571,0,0,1-4.571-4.571V178.6a2.285,2.285,0,0,0,2.285,2.285h21.892a2.285,2.285,0,0,0,2.285-2.285v-6.014a2.286,2.286,0,0,0-2.285-2.285H422.232a2.286,2.286,0,0,0-2.285,2.285v-8.3a4.571,4.571,0,0,1,4.571-4.571h27.906A4.571,4.571,0,0,1,457,164.283Z" transform="translate(-227.995 -83.724)" fill="#e3f0fb"/>
    <path id="Path_47834" data-name="Path 47834" d="M350.115,90.582a3.523,3.523,0,0,1-3.323,3.57,3.428,3.428,0,0,1-3.534-3.427v-4.21a2.286,2.286,0,0,0-2.285-2.285H328.151l2.993,2.993a3.545,3.545,0,0,1,.043,5.011,3.429,3.429,0,0,1-4.788-.059l-8.859-8.859a3.428,3.428,0,0,1,0-4.848l8.859-8.859a3.43,3.43,0,0,1,4.922.076,3.522,3.522,0,0,1-.175,4.873l-2.817,2.817h14.946a6.856,6.856,0,0,1,6.856,6.874Zm-3.428,8.143a3.428,3.428,0,1,0,3.428,3.428A3.428,3.428,0,0,0,346.687,98.724Zm0,10.513a3.428,3.428,0,1,0,3.428,3.428A3.428,3.428,0,0,0,346.687,109.237Z" transform="translate(-171.851 -34.26)" fill="#fff5f5"/>
  </g>
</svg>
